<?xml version="1.0" encoding="UTF-8"?>
<svg id="Layer_2" xmlns="http://www.w3.org/2000/svg" width="47.55" height="47.55" viewBox="0 0 47.55 47.55">
  <defs>
    <style>
      .cls-1 {
        fill: #fff;
      }
    </style>
  </defs>
  <g id="Layer_1-2" data-name="Layer_1">
    <g>
      <path class="cls-1" d="M46.99,22.15l-4.87-6.08c-.25-.32-.64-.5-1.03-.5h-8.02c-.59,0-1.09-.5-1.09-1.09V6.47c0-.41-.19-.79-.5-1.03L25.4.56c-.95-.75-2.29-.75-3.24,0l-6.09,4.87c-.31.24-.5.63-.5,1.03v8.55c0,.3-.25.56-.56.56H6.48c-.41,0-.79.17-1.04.5L.57,22.15c-.76.95-.76,2.29,0,3.24l4.86,6.08c.25.32.64.51,1.04.51h8.01c.59,0,1.09.49,1.09,1.09v8.01c0,.41.19.79.5,1.03l6.09,4.87c.95.75,2.29.75,3.24,0l6.08-4.87c.31-.24.5-.63.5-1.03v-8.01c0-.59.5-1.09,1.09-1.09h8.02c.39,0,.78-.19,1.03-.51l4.87-6.08c.75-.95.75-2.29,0-3.24ZM28.98,24.73l2.37,5.91c.17.44-.25.87-.69.69l-5.91-2.36c-.61-.25-1.31-.25-1.92,0l-5.91,2.36c-.44.17-.87-.25-.69-.69l2.28-5.72c.3-.74.3-1.57,0-2.32l-2.35-5.88c-.15-.37.23-.75.6-.6l6.08,2.43c.61.25,1.31.25,1.92,0l5.93-2.37c.44-.17.87.25.69.69l-2.38,5.93c-.24.61-.24,1.31,0,1.92Z"/>
      <path class="cls-1" d="M46.92,10.23c.11.29-.17.57-.46.46l-3.9-1.56c-.4-.17-.86-.17-1.27,0l-3.9,1.56c-.29.11-.57-.17-.46-.46l1.5-3.77c.2-.49.2-1.04,0-1.53l-1.55-3.88c-.1-.24.15-.5.4-.4l4.01,1.6c.4.17.86.17,1.27,0l3.91-1.57c.29-.11.57.17.46.46l-1.57,3.91c-.16.4-.16.86,0,1.27l1.57,3.9Z"/>
    </g>
  </g>
</svg>