<?xml version="1.0" encoding="UTF-8"?>
<svg id="Layer_2" xmlns="http://www.w3.org/2000/svg" width="141.73" height="141.73" viewBox="0 0 141.73 141.73">
  <defs>
    <style>
      .cls-1 {
        fill: #dd6c27;
      }
    </style>
  </defs>
  <g id="Layer_1-2" data-name="Layer_1">
    <path class="cls-1" d="M72.19,12.64L133.76.14c4.66-.95,8.78,3.17,7.84,7.84l-12.5,61.57c-.18.87-.18,1.77,0,2.65l12.5,61.57c.95,4.66-3.17,8.78-7.84,7.84l-61.57-12.5c-.87-.18-1.77-.18-2.65,0l-61.57,12.5c-4.66.95-8.78-3.17-7.84-7.84l12.5-61.57c.18-.87.18-1.77,0-2.65L.14,7.97C-.81,3.31,3.31-.81,7.97.14l61.57,12.5c.87.18,1.77.18,2.65,0Z"/>
  </g>
</svg>